<svg width="86" height="87" viewBox="0 0 86 87" fill="none" xmlns="http://www.w3.org/2000/svg">
<path d="M55.5517 83.1726C55.6949 82.5286 55.7664 81.8607 55.7664 81.1928L55.9334 67.3586C65.0688 62.445 70.7217 53.0234 70.7217 42.5762C70.7217 27.0722 58.1039 14.4306 42.5762 14.4306C27.0484 14.4306 14.4306 27.0484 14.4306 42.5762C14.4306 42.8385 14.4306 43.1248 14.4544 43.3871L2.67144 49.9703C2.02744 50.3281 1.40728 50.7575 0.882531 51.2584C0.310078 48.4438 0 45.5338 0 42.6C0 19.1056 19.1056 0 42.6 0C66.0944 0 85.2 19.1056 85.2 42.6C85.2 52.3078 82.0038 61.4432 75.9692 69.0521C70.6979 75.6591 63.5422 80.6204 55.5517 83.1726ZM46.5833 30.9124C45.6769 30.9124 44.7228 31.151 43.8165 31.6519C43.8165 31.6519 31.5803 38.4736 18.9148 45.5577C18.0323 46.0586 17.1497 46.5356 16.2672 47.0365C12.2362 49.2786 8.229 51.5207 4.65118 53.5243C2.09899 54.9554 1.38343 57.7938 2.21825 60.0837C2.81456 61.7772 4.22184 63.1606 6.32083 63.5422L14.8599 65.0449L25.665 49.6603C26.142 48.9924 26.8814 48.6346 27.6447 48.6346C28.1217 48.6346 28.5988 48.7777 29.0281 49.0639C30.1253 49.8272 30.3877 51.3299 29.6244 52.4271L13.6673 75.1344C12.904 76.2316 13.1664 77.7343 14.2636 78.4976C14.6929 78.7838 15.17 78.9269 15.647 78.9269C16.4103 78.9269 17.1497 78.5691 17.6268 77.9012L38.0681 48.9685C38.5451 48.3007 39.2845 47.9429 40.0478 47.9429C40.5249 47.9429 41.0019 48.086 41.4312 48.3722C42.5284 49.1355 42.7908 50.6382 42.0275 51.7354L38.9506 56.1242C38.8075 56.2435 38.6882 56.3866 38.5928 56.5297L25.1164 75.7307C24.3531 76.8279 24.6155 78.3306 25.7127 79.0939C26.142 79.3801 26.619 79.5232 27.0961 79.5232C27.8594 79.5232 28.5988 79.1654 29.0758 78.4976L39.7616 63.423C40.2386 62.7551 40.9781 62.3973 41.7413 62.3973C42.2184 62.3973 42.6954 62.5404 43.1248 62.8267C44.222 63.5899 44.4843 65.0926 43.7211 66.1898L36.0884 77.0664C38.0681 79.4278 40.2386 82.0038 42.3376 84.5322C43.4587 85.8679 44.9375 86.4642 46.3925 86.4642C46.798 86.4642 47.2035 86.4165 47.5851 86.3211C49.8272 85.8202 51.7592 83.8881 51.7831 81.1213C51.8308 76.971 51.8785 72.3198 51.9501 67.5971C52.117 52.3794 52.3078 36.6847 52.3078 36.6847C52.3078 33.3454 49.5648 30.9124 46.5833 30.9124Z" fill="url(#paint0_linear_14_121)"/>
<defs>
<linearGradient id="paint0_linear_14_121" x1="19.8687" y1="81.7634" x2="63.6445" y2="6.33435" gradientUnits="userSpaceOnUse">
<stop stop-color="#FF7952"/>
<stop offset="1" stop-color="#8204FF"/>
</linearGradient>
</defs>
</svg>
