<svg id="Layer_1" data-name="Layer 1" xmlns="http://www.w3.org/2000/svg" xmlns:xlink="http://www.w3.org/1999/xlink" viewBox="0 0 1010 1010"><defs><style>.cls-1{fill:#fff;}.cls-2{fill:url(#linear-gradient);}.cls-3{fill:url(#linear-gradient-2);}.cls-4{fill:url(#linear-gradient-3);}.cls-5{fill:url(#linear-gradient-4);}.cls-6{fill:url(#linear-gradient-5);}</style><linearGradient id="linear-gradient" x1="760.23" y1="256.59" x2="184.07" y2="812.22" gradientUnits="userSpaceOnUse"><stop offset="0" stop-color="#c930e3"/><stop offset="1" stop-color="#840ce7"/></linearGradient><linearGradient id="linear-gradient-2" x1="688.15" y1="181.84" x2="111.99" y2="737.48" xlink:href="#linear-gradient"/><linearGradient id="linear-gradient-3" x1="847.32" y1="346.89" x2="271.17" y2="902.53" xlink:href="#linear-gradient"/><linearGradient id="linear-gradient-4" x1="823.33" y1="322.01" x2="247.17" y2="877.65" xlink:href="#linear-gradient"/><linearGradient id="linear-gradient-5" x1="870.16" y1="370.57" x2="294" y2="926.21" xlink:href="#linear-gradient"/></defs><rect class="cls-1" width="1010" height="1010" rx="163.91"/><path class="cls-2" d="M535.56,694.43c-122.24,0-221.68-99.45-221.68-221.68A219.94,219.94,0,0,1,365.13,331l-52.61-52.6a295.63,295.63,0,0,0-23.17,358.5l-113.64,96a64,64,0,0,0-4,94.2h0a64,64,0,0,0,94.2-4L360.5,711.28a295.53,295.53,0,0,0,369.44-15.5l-52.61-52.6A220,220,0,0,1,535.56,694.43Z"/><path class="cls-3" d="M363,266.46a269.07,269.07,0,0,1,171.33-62.68h1.27A267.68,267.68,0,0,1,705,264l-28,27.95a228.19,228.19,0,0,0-141.71-48.83,235.49,235.49,0,0,0-26.39,1.47l-.53.07A32.88,32.88,0,0,0,449,259.75l-.1,0a228.36,228.36,0,0,0-56.33,33,13.86,13.86,0,1,0,17.25,21.69,200.82,200.82,0,0,1,47.82-28.3A32.88,32.88,0,0,0,513.44,272a209,209,0,0,1,21.89-1.15A200.65,200.65,0,0,1,657.27,311.7l-29.63,29.63a160.31,160.31,0,0,0-184.39.47,13.68,13.68,0,0,0,15.84,22.31A133,133,0,0,1,607.94,361l-33.57,33.57a88.87,88.87,0,1,0,39.33,39.33L577.14,470.5c.09,1.16.14,2.33.14,3.51a43,43,0,1,1-43-43c1.18,0,2.36.05,3.51.15a42.77,42.77,0,0,1,26.89,12.45l32.48-32.49,32.48-32.48L678.28,330l19.59-19.6,27.79-27.79L745.3,263q-9.9-9.88-20.58-18.76a295.76,295.76,0,0,0-189.16-68.11h-1.27a295.21,295.21,0,0,0-189.08,69.13A13.82,13.82,0,0,0,363,266.46Zm118.65,18.25A21,21,0,1,1,500,273.86,20.83,20.83,0,0,1,481.61,284.71Z"/><path class="cls-4" d="M696,618a13.87,13.87,0,0,0,19.48-2.22,230,230,0,0,0,.85-284.49L696.6,351a202.3,202.3,0,0,1-2.78,247.47A13.87,13.87,0,0,0,696,618Z"/><path class="cls-5" d="M647.43,568.29a13.67,13.67,0,0,0,19.07-3.23A160.31,160.31,0,0,0,667,380.67l-19.7,19.7a133,133,0,0,1-3.07,148.84A13.68,13.68,0,0,0,647.43,568.29Z"/><path class="cls-6" d="M827.12,527.52a299.12,299.12,0,0,0,5-53.51v-1.26a295.67,295.67,0,0,0-68.11-189.17l-19.73,19.74a267.73,267.73,0,0,1,60.21,169.43V474a269.79,269.79,0,0,1-4.27,46.46,32.87,32.87,0,0,0-16.66,56.29,268.43,268.43,0,0,1-41.75,68.59A13.81,13.81,0,1,0,763,663.1a295.48,295.48,0,0,0,47-77.63,32.88,32.88,0,0,0,17.13-58Zm-11.89,44.23a21,21,0,1,1,11.9-18.93A20.89,20.89,0,0,1,815.23,571.75Z"/></svg>