<svg width="313" height="55" viewBox="0 0 313 55" fill="none" xmlns="http://www.w3.org/2000/svg">
<path d="M69.5973 44.6413H63.9473V11.3306H81.7734C83.3143 11.3306 84.6135 11.5723 85.6861 12.0557C86.7587 12.5391 87.6198 13.1887 88.2694 14.0196C88.919 14.8505 89.4024 15.8173 89.7045 16.9201C90.0067 18.0229 90.1577 19.2013 90.1577 20.44C90.1577 22.3888 89.765 23.9902 88.9794 25.2289C88.1939 26.4677 87.0457 27.4647 85.5048 28.205C87.3328 28.4618 88.7377 29.3531 89.7499 30.8638C90.762 32.3745 91.2606 34.2931 91.2606 36.5893V44.6413H85.5653V37.1634C85.5653 35.2146 85.1725 33.7492 84.3869 32.7824C83.6014 31.8155 82.5288 31.317 81.154 31.317C80.2627 31.317 79.2355 31.5436 78.0873 31.9817C76.9694 32.4047 75.8968 32.8277 74.8696 33.2507C73.8423 33.6888 72.951 34.1722 72.1654 34.7161C71.3799 35.2599 70.7605 35.8793 70.2922 36.5893C69.8239 37.2993 69.5973 38.1302 69.5973 39.082V44.6413ZM84.3567 20.1983C84.3567 18.9898 84.0697 18.038 83.5258 17.3431C82.9669 16.6633 81.9547 16.3158 80.4893 16.3158H69.6124V30.6523C70.1562 30.0782 70.7907 29.5646 71.5007 29.1114C72.2259 28.6582 72.9661 28.2503 73.7517 27.8877C74.5372 27.5252 75.3379 27.1928 76.1536 26.8756C76.9694 26.5734 77.7248 26.2713 78.4348 25.9843C79.2657 25.6368 80.0512 25.2893 80.7764 24.957C81.5166 24.6246 82.136 24.2319 82.6647 23.8089C83.1935 23.3708 83.6014 22.8722 83.9035 22.2982C84.2056 21.7392 84.3567 21.0292 84.3567 20.1983Z" fill="#211D34"/>
<path d="M120.16 32.6614V45.1699H114.752V41.091C113.891 42.6319 112.712 43.7649 111.202 44.4901C109.706 45.2303 108.09 45.5929 106.368 45.5929C104.932 45.5929 103.497 45.321 102.047 44.7771C100.612 44.2333 99.3127 43.4175 98.1645 42.3298C97.0164 41.2421 96.0949 39.8976 95.3849 38.2811C94.6749 36.6647 94.3274 34.7914 94.3274 32.6463C94.3274 30.4709 94.69 28.5674 95.4302 26.951C96.1704 25.3194 97.1373 23.9749 98.3609 22.9023C99.5695 21.8297 100.959 21.0291 102.5 20.4852C104.056 19.9414 105.642 19.6694 107.274 19.6694C108.875 19.6694 110.446 19.9414 111.987 20.4852C113.543 21.0291 114.918 21.8297 116.127 22.9023C117.335 23.9749 118.317 25.3194 119.057 26.951C119.783 28.5825 120.16 30.486 120.16 32.6614ZM107.319 40.517C108.407 40.517 109.404 40.3055 110.31 39.8976C111.217 39.4897 112.002 38.9307 112.652 38.2207C113.302 37.5258 113.815 36.6798 114.193 35.7281C114.556 34.7763 114.737 33.7491 114.737 32.6614C114.737 31.5737 114.556 30.5615 114.193 29.6249C113.83 28.6883 113.317 27.8574 112.652 27.1322C112.002 26.4071 111.217 25.8482 110.31 25.4252C109.404 25.0173 108.407 24.8058 107.319 24.8058C106.232 24.8058 105.235 25.0173 104.328 25.4252C103.422 25.8482 102.636 26.4071 101.987 27.1322C101.337 27.8574 100.823 28.6883 100.446 29.6249C100.083 30.5615 99.9018 31.5888 99.9018 32.6614C99.9018 33.7491 100.083 34.7763 100.446 35.7281C100.808 36.6798 101.322 37.5107 101.987 38.2207C102.636 38.9307 103.422 39.4897 104.328 39.8976C105.235 40.3055 106.232 40.517 107.319 40.517Z" fill="#211D34"/>
<path d="M136.113 19.6694C137.775 19.6694 139.331 19.9263 140.781 20.4399C142.231 20.9535 143.516 21.724 144.618 22.7361C145.721 23.7634 146.597 25.0324 147.232 26.5733C147.866 28.1142 148.184 29.9119 148.184 31.9816V45.1699H142.715V31.5133C142.715 30.3651 142.549 29.353 142.216 28.4768C141.884 27.6006 141.416 26.8754 140.796 26.3014C140.192 25.7273 139.482 25.2892 138.681 25.0022C137.881 24.7151 137.02 24.5641 136.098 24.5641C135.207 24.5641 134.346 24.7151 133.53 25.0022C132.714 25.2892 132.019 25.7273 131.415 26.3014C130.826 26.8754 130.357 27.6006 129.995 28.4768C129.647 29.353 129.466 30.3651 129.466 31.5133V45.1699H124.058V31.9967C124.058 29.927 124.375 28.1142 125.01 26.5884C125.644 25.0475 126.505 23.7785 127.593 22.7512C128.681 21.724 129.95 20.9686 131.4 20.455C132.895 19.9263 134.451 19.6694 136.113 19.6694Z" fill="#211D34"/>
<path d="M170.421 31.2715C172.143 31.7247 173.518 32.6311 174.545 34.0058C175.572 35.3806 176.086 37.1632 176.086 39.3688V45.1698H170.617V39.8522C170.617 38.13 170.164 36.7704 169.258 35.8036C168.351 34.8367 167.218 34.3382 165.874 34.3382C165.073 34.3382 164.212 34.5346 163.29 34.9123C162.429 35.2597 161.674 35.6374 161.009 36.0453C160.36 36.4381 159.801 36.9064 159.363 37.4351C158.909 37.9639 158.577 38.5983 158.35 39.3235C158.124 40.0637 158.018 40.955 158.018 42.0125V45.1698H152.61V8.26367H158.018V33.6131C158.819 32.7822 159.831 32.0419 161.055 31.4075C162.278 30.773 163.653 30.0478 165.149 29.2472C166.206 28.6731 167.022 28.1595 167.596 27.7063C168.17 27.2531 168.593 26.7696 168.865 26.2409C169.137 25.7122 169.288 25.1079 169.318 24.4432C169.348 23.7785 169.363 22.9476 169.363 21.9505V20.0773H174.772V22.1318C174.772 23.2195 174.711 24.2015 174.575 25.1079C174.454 25.9992 174.228 26.8301 173.911 27.5703C173.593 28.3256 173.155 29.0055 172.596 29.6097C172.052 30.2442 171.327 30.7881 170.421 31.2715Z" fill="#211D34"/>
<path d="M185.951 44.6413H180.301V11.3306H198.127C199.668 11.3306 200.967 11.5723 202.04 12.0557C203.112 12.5391 203.973 13.1887 204.623 14.0196C205.272 14.8505 205.756 15.8173 206.058 16.9201C206.36 18.0229 206.511 19.2013 206.511 20.44C206.511 22.3888 206.118 23.9902 205.333 25.2289C204.547 26.4677 203.399 27.4647 201.858 28.205C203.686 28.4618 205.091 29.3531 206.103 30.8638C207.116 32.3745 207.614 34.2931 207.614 36.5893V44.6413H201.919V37.1634C201.919 35.2146 201.526 33.7492 200.74 32.7824C199.955 31.8155 198.882 31.317 197.508 31.317C196.616 31.317 195.589 31.5436 194.441 31.9817C193.323 32.4047 192.25 32.8277 191.223 33.2507C190.196 33.6888 189.305 34.1722 188.519 34.7161C187.733 35.2599 187.114 35.8793 186.646 36.5893C186.177 37.2993 185.951 38.1302 185.951 39.082V44.6413ZM200.71 20.1983C200.71 18.9898 200.423 18.038 199.879 17.3431C199.32 16.6633 198.308 16.3158 196.843 16.3158H185.966V30.6523C186.51 30.0782 187.144 29.5646 187.854 29.1114C188.579 28.6582 189.32 28.2503 190.105 27.8877C190.891 27.5252 191.691 27.1928 192.507 26.8756C193.323 26.5734 194.078 26.2713 194.788 25.9843C195.619 25.6368 196.405 25.2893 197.13 24.957C197.87 24.6246 198.49 24.2319 199.018 23.8089C199.547 23.3708 199.955 22.8722 200.257 22.2982C200.559 21.7392 200.71 21.0292 200.71 20.1983Z" fill="#211D34"/>
<path d="M236.513 32.6614V45.1699H231.105V41.091C230.244 42.6319 229.066 43.7649 227.555 44.4901C226.06 45.2303 224.443 45.5929 222.721 45.5929C221.286 45.5929 219.851 45.321 218.4 44.7771C216.965 44.2333 215.666 43.4175 214.518 42.3298C213.37 41.2421 212.448 39.8976 211.738 38.2811C211.028 36.6647 210.681 34.7914 210.681 32.6463C210.681 30.4709 211.043 28.5674 211.783 26.951C212.524 25.3194 213.491 23.9749 214.714 22.9023C215.923 21.8297 217.313 21.0291 218.853 20.4852C220.41 19.9414 221.996 19.6694 223.627 19.6694C225.229 19.6694 226.8 19.9414 228.341 20.4852C229.897 21.0291 231.271 21.8297 232.48 22.9023C233.688 23.9749 234.67 25.3194 235.411 26.951C236.136 28.5825 236.513 30.486 236.513 32.6614ZM223.673 40.517C224.76 40.517 225.757 40.3055 226.664 39.8976C227.57 39.4897 228.356 38.9307 229.005 38.2207C229.655 37.5258 230.169 36.6798 230.546 35.7281C230.909 34.7763 231.09 33.7491 231.09 32.6614C231.09 31.5737 230.909 30.5615 230.546 29.6249C230.184 28.6883 229.67 27.8574 229.005 27.1322C228.356 26.4071 227.57 25.8482 226.664 25.4252C225.757 25.0173 224.76 24.8058 223.673 24.8058C222.585 24.8058 221.588 25.0173 220.681 25.4252C219.775 25.8482 218.989 26.4071 218.34 27.1322C217.69 27.8574 217.177 28.6883 216.799 29.6249C216.436 30.5615 216.255 31.5888 216.255 32.6614C216.255 33.7491 216.436 34.7763 216.799 35.7281C217.162 36.6798 217.675 37.5107 218.34 38.2207C218.989 38.9307 219.775 39.4897 220.681 39.8976C221.588 40.3055 222.585 40.517 223.673 40.517Z" fill="#211D34"/>
<path d="M265.64 8.26367V32.6009C265.64 34.7763 265.277 36.6798 264.537 38.2962C263.797 39.9277 262.83 41.2723 261.606 42.3449C260.398 43.4174 259.008 44.2181 257.467 44.762C255.911 45.3058 254.34 45.5777 252.753 45.5777C251.122 45.5777 249.536 45.3058 247.98 44.762C246.424 44.2181 245.049 43.4174 243.84 42.3449C242.632 41.2723 241.65 39.9277 240.91 38.2962C240.169 36.6647 239.807 34.7612 239.807 32.6009C239.807 30.4255 240.154 28.5371 240.864 26.9509C241.574 25.3496 242.496 24.0353 243.644 22.9778C244.792 21.9203 246.091 21.1348 247.557 20.6362C249.007 20.1226 250.472 19.8658 251.938 19.8658C253.509 19.8658 255.02 20.1377 256.47 20.6815C257.92 21.2254 259.159 22.0412 260.186 23.1289V8.26367H265.64ZM252.799 40.4716C253.887 40.4716 254.868 40.2601 255.775 39.8522C256.666 39.4443 257.437 38.8703 258.101 38.1451C258.751 37.42 259.265 36.5891 259.642 35.6525C260.005 34.7159 260.186 33.6886 260.186 32.616C260.186 31.5283 260.005 30.501 259.642 29.5493C259.28 28.5976 258.766 27.7667 258.101 27.0567C257.452 26.3617 256.666 25.7877 255.775 25.3798C254.884 24.9719 253.887 24.7604 252.799 24.7604C251.711 24.7604 250.714 24.9719 249.808 25.3798C248.901 25.8028 248.116 26.3617 247.466 27.0567C246.816 27.7667 246.303 28.5976 245.925 29.5493C245.563 30.501 245.381 31.5283 245.381 32.616C245.381 33.7037 245.563 34.7159 245.925 35.6525C246.288 36.5891 246.801 37.42 247.466 38.1451C248.116 38.8703 248.901 39.4292 249.808 39.8522C250.714 40.2601 251.711 40.4716 252.799 40.4716Z" fill="#211D34"/>
<path d="M294.69 32.6614V45.1699H289.282V41.091C288.421 42.6319 287.243 43.7649 285.732 44.4901C284.236 45.2303 282.62 45.5929 280.898 45.5929C279.462 45.5929 278.027 45.321 276.577 44.7771C275.142 44.2333 273.843 43.4175 272.695 42.3298C271.546 41.2421 270.625 39.8976 269.915 38.2811C269.205 36.6647 268.857 34.7914 268.857 32.6463C268.857 30.4709 269.22 28.5674 269.96 26.951C270.7 25.3194 271.667 23.9749 272.891 22.9023C274.1 21.8297 275.489 21.0291 277.03 20.4852C278.586 19.9414 280.173 19.6694 281.804 19.6694C283.405 19.6694 284.976 19.9414 286.517 20.4852C288.073 21.0291 289.448 21.8297 290.657 22.9023C291.865 23.9749 292.847 25.3194 293.587 26.951C294.313 28.5825 294.69 30.486 294.69 32.6614ZM281.849 40.517C282.937 40.517 283.934 40.3055 284.841 39.8976C285.747 39.4897 286.533 38.9307 287.182 38.2207C287.832 37.5258 288.345 36.6798 288.723 35.7281C289.086 34.7763 289.267 33.7491 289.267 32.6614C289.267 31.5737 289.086 30.5615 288.723 29.6249C288.36 28.6883 287.847 27.8574 287.182 27.1322C286.533 26.4071 285.747 25.8482 284.841 25.4252C283.934 25.0173 282.937 24.8058 281.849 24.8058C280.762 24.8058 279.765 25.0173 278.858 25.4252C277.952 25.8482 277.166 26.4071 276.517 27.1322C275.867 27.8574 275.353 28.6883 274.976 29.6249C274.613 30.5615 274.432 31.5888 274.432 32.6614C274.432 33.7491 274.613 34.7763 274.976 35.7281C275.338 36.6798 275.852 37.5107 276.517 38.2207C277.166 38.9307 277.952 39.4897 278.858 39.8976C279.765 40.3055 280.762 40.517 281.849 40.517Z" fill="#211D34"/>
<path d="M313 20.1079V24.9421H309.646C307.697 24.9421 306.293 25.4104 305.447 26.3622C304.601 27.2988 304.178 28.8246 304.178 30.9396V45.1703H298.769V30.9396C298.769 27.465 299.555 24.7759 301.141 22.9178C302.727 21.0445 305.19 20.1079 308.543 20.1079H313Z" fill="#211D34"/>
<path d="M35.184 52.6778C35.2746 52.2699 35.32 51.8469 35.32 51.4239L35.4257 42.6619C41.2116 39.5499 44.792 33.5827 44.792 26.9658C44.792 17.1463 36.8004 9.13968 26.9658 9.13968C17.1312 9.13968 9.13968 17.1312 9.13968 26.9658C9.13968 27.132 9.13968 27.3133 9.15479 27.4795L1.69197 31.649C1.28409 31.8756 0.891308 32.1475 0.558956 32.4647C0.19639 30.6821 0 28.8391 0 26.9809C0 12.1006 12.1006 0 26.9809 0C41.8612 0 53.9619 12.1006 53.9619 26.9809C53.9619 33.1294 51.9376 38.9154 48.1155 43.7345C44.7769 47.9191 40.2448 51.0613 35.184 52.6778Z" fill="url(#paint0_linear_66_163)"/>
<path d="M29.5038 19.5786C28.9297 19.5786 28.3254 19.7297 27.7514 20.0469C27.7514 20.0469 20.0015 24.3675 11.9798 28.8543C11.4208 29.1715 10.8619 29.4736 10.3029 29.7909C7.74984 31.2109 5.21188 32.631 2.94585 33.9C1.32941 34.8064 0.876201 36.6041 1.40494 38.0544C1.78262 39.1269 2.67392 40.0032 4.00333 40.2449L9.4116 41.1966L16.255 31.4526C16.5572 31.0296 17.0255 30.803 17.5089 30.803C17.811 30.803 18.1132 30.8937 18.3851 31.075C19.08 31.5584 19.2462 32.5101 18.7628 33.205L8.65626 47.5868C8.17284 48.2817 8.33901 49.2335 9.03393 49.7169C9.30585 49.8982 9.60799 49.9888 9.91013 49.9888C10.3936 49.9888 10.8619 49.7622 11.164 49.3392L24.1106 31.0145C24.4128 30.5915 24.8811 30.3649 25.3645 30.3649C25.6666 30.3649 25.9688 30.4556 26.2407 30.6369C26.9356 31.1203 27.1018 32.072 26.6184 32.7669L24.6696 35.5466C24.5789 35.6221 24.5034 35.7128 24.443 35.8034L15.9076 47.9645C15.4242 48.6594 15.5903 49.6111 16.2852 50.0946C16.5572 50.2758 16.8593 50.3665 17.1614 50.3665C17.6449 50.3665 18.1132 50.1399 18.4153 49.7169L25.1832 40.1693C25.4854 39.7463 25.9537 39.5197 26.4371 39.5197C26.7392 39.5197 27.0414 39.6104 27.3133 39.7917C28.0082 40.2751 28.1744 41.2268 27.691 41.9217L22.8568 48.8105C24.1106 50.3061 25.4854 51.9376 26.8148 53.5389C27.5248 54.3849 28.4614 54.7626 29.3829 54.7626C29.6398 54.7626 29.8966 54.7324 30.1383 54.672C31.5583 54.3547 32.782 53.1311 32.7971 51.3787C32.8273 48.7501 32.8575 45.8042 32.9028 42.813C33.0086 33.1748 33.1294 23.2345 33.1294 23.2345C33.1294 21.1195 31.3922 19.5786 29.5038 19.5786Z" fill="url(#paint1_linear_66_163)"/>
<defs>
<linearGradient id="paint0_linear_66_163" x1="10.5261" y1="50.5179" x2="41.7174" y2="5.8903" gradientUnits="userSpaceOnUse">
<stop stop-color="#FF7952"/>
<stop offset="1" stop-color="#8204FF"/>
</linearGradient>
<linearGradient id="paint1_linear_66_163" x1="11.86" y1="51.4503" x2="43.0513" y2="6.82269" gradientUnits="userSpaceOnUse">
<stop stop-color="#FF7952"/>
<stop offset="1" stop-color="#8204FF"/>
</linearGradient>
</defs>
</svg>
