<svg id="Layer_1" data-name="Layer 1" xmlns="http://www.w3.org/2000/svg" xmlns:xlink="http://www.w3.org/1999/xlink" viewBox="0 0 2147.48 424.77"><defs><style>.cls-1{fill:#fff;}.cls-2{fill:url(#linear-gradient);}.cls-3{fill:url(#linear-gradient-2);}.cls-4{fill:url(#linear-gradient-3);}.cls-5{fill:url(#linear-gradient-5);}.cls-6{fill:url(#linear-gradient-6);}.cls-7{fill:url(#linear-gradient-7);}.cls-8{fill:url(#linear-gradient-8);}.cls-9{fill:url(#linear-gradient-9);}.cls-10{fill:url(#linear-gradient-10);}</style><linearGradient id="linear-gradient" x1="1288.36" y1="209.06" x2="2122.72" y2="209.06" gradientUnits="userSpaceOnUse"><stop offset="0" stop-color="#c930e3"/><stop offset="1" stop-color="#840ce7"/></linearGradient><linearGradient id="linear-gradient-2" x1="1288.36" y1="241.1" x2="2122.72" y2="241.1" xlink:href="#linear-gradient"/><linearGradient id="linear-gradient-3" x1="1288.36" y1="204.58" x2="2122.72" y2="204.58" xlink:href="#linear-gradient"/><linearGradient id="linear-gradient-5" x1="1288.36" y1="239.06" x2="2122.72" y2="239.06" xlink:href="#linear-gradient"/><linearGradient id="linear-gradient-6" x1="385.14" y1="51.02" x2="19.71" y2="403.44" xlink:href="#linear-gradient"/><linearGradient id="linear-gradient-7" x1="339.42" y1="3.62" x2="-26.01" y2="356.03" xlink:href="#linear-gradient"/><linearGradient id="linear-gradient-8" x1="440.37" y1="108.3" x2="74.95" y2="460.71" xlink:href="#linear-gradient"/><linearGradient id="linear-gradient-9" x1="425.16" y1="92.52" x2="59.73" y2="444.93" xlink:href="#linear-gradient"/><linearGradient id="linear-gradient-10" x1="454.86" y1="123.32" x2="89.43" y2="475.73" xlink:href="#linear-gradient"/></defs><path class="cls-1" d="M664.55,271c0-41.91-17.49-54-29.09-58.26,16.92-7,34-24,34-55.4,0-36.17-27.49-64.29-78.54-64.29H488.06v40.3h93.13c24.76,0,37.2,10.66,37.2,29.71,0,19.58-10.68,30.12-38.41,30.12H537.54V149H488.06V327.21h49.48V233.49h33.3c37.73,0,44.2,12.12,44.2,37.72v3.43c0,24.86.77,42.38,4.89,52.57h48c-3.22-11-3.36-28.89-3.36-44.64Z"/><path class="cls-1" d="M852.65,281.79V207.88c0-41.84-25.63-60.24-72.71-60.54-53.45-.3-72.77,25-75.41,56.22h46.28c2.25-12.73,6.74-21.46,27.29-21.46,22.57,0,27.07,12.29,27.07,24.79v10.74H780.08c-51.54,0-83.7,18.48-83.7,58.53,0,27.26,17.88,55.13,60.27,55.13,31.09,0,43.05-11.39,49.42-21.26.08,4.44,1.1,13.7,2.46,17.18H855C854,323,852.65,298.53,852.65,281.79Zm-47.44-30c0,23.23-3.8,44.73-34.73,44.73-17.49,0-25.3-10.72-25.3-23.44,0-16.95,10.87-25.91,40.2-25.91h19.83Z"/><path class="cls-1" d="M996.67,147.34c-30.8,0-45,15.43-51,26.48-.25-5.66-.89-17.86-1.87-22.4H896.66c.34,13,.34,29.34.34,44.29v131.5h48.67v-98c0-31,11.84-42.54,32.52-42.54,21.47,0,28.06,14.31,28.06,34.08V327.21h48.67V215.38C1054.92,171.2,1032,147.34,996.67,147.34Z"/><path class="cls-1" d="M1201.83,217.81l61.27-66.39h-55.82c-24.25,29.33-47.58,56.63-60.51,74.17V79.3h-48.68V327.21h48.68V270.8L1169.28,249l44.48,78.2h55.14Z"/><path class="cls-2" d="M1459.06,280.43V270.3c0-41-16.78-55.42-36.06-60.59,22.64-6.26,40.28-24.87,40.28-55.58,0-36.88-25.88-63.21-74.43-63.21h-92.34V327.21h31.07V223.13h48.31c42.38,0,51.89,14.62,51.89,48.26v5c0,22.18-.3,40.6,4,50.79h30.47C1458.3,317.32,1459.06,296.71,1459.06,280.43ZM1379,196.77h-51.38V117.28h54.91c32.09,0,48.46,14.23,48.46,39.35C1431,183.19,1415.08,196.77,1379,196.77Z"/><path class="cls-3" d="M1637.15,289.66V207.34c0-39.16-23.3-56.3-65.38-56.42-49.52-.12-64.19,27.3-66.47,51h28.77c3.13-13.44,8-27.71,36.75-27.71,32.23,0,37.08,18.54,37.08,33.72v14.67h-29.38c-51.18,0-81.37,17.59-81.37,56,0,26.19,17.34,52.63,57.94,52.63,33.42,0,47.16-15.14,53.17-26.62.44,10.51,1.46,18.71,2.82,22.54h28.45C1638.51,322.26,1637.15,305.32,1637.15,289.66Zm-29-40.9c0,31.27-5.59,59.21-47.06,59.21-21.25,0-33.52-13-33.52-31,0-24.28,18.38-33.77,52.71-33.77h27.87Z"/><path class="cls-4" d="M1831.44,278.55V77.87h-29.73v95c-4.62-9.66-18.2-22-48.68-22-47.63,0-77,39-77,92,0,52.51,27.21,88.39,71.48,88.39,28.23,0,45.68-10.57,54.18-28.52.11,6.69.7,19.88,1.5,24.44h28.57C1831.44,310.59,1831.44,294.73,1831.44,278.55Zm-77.69,27.51c-27,0-46.83-22.48-46.83-64.08,0-41.78,18.79-65.84,49.16-65.84,38.78,0,46.79,24.17,46.79,62.45C1802.87,276.36,1794,306.06,1753.75,306.06Z"/><path class="cls-3" d="M2008.36,289.66V207.34c0-39.16-23.3-56.3-65.39-56.42-49.51-.12-64.18,27.3-66.46,51h28.76c3.14-13.44,8-27.71,36.76-27.71,32.23,0,37.08,18.54,37.08,33.72v14.67h-29.38c-51.18,0-81.37,17.59-81.37,56,0,26.19,17.34,52.63,57.94,52.63,33.42,0,47.16-15.14,53.17-26.62.44,10.51,1.46,18.71,2.82,22.54h28.45C2009.72,322.26,2008.36,305.32,2008.36,289.66Zm-29-40.9c0,31.27-5.59,59.21-47.06,59.21-21.25,0-33.53-13-33.53-31,0-24.28,18.39-33.77,52.72-33.77h27.87Z"/><path class="cls-5" d="M2089.47,190.14c0-16.8-.46-30.31-.92-35.15H2059.4c.12,9.17.34,22.71.34,46.79V327.21h29.73V243.6c0-43.54,22.69-62,58-63V150.92C2119,151.79,2098.47,166.84,2089.47,190.14Z"/><path class="cls-6" d="M242.64,328.72c-77.53,0-140.6-63.07-140.6-140.6a139.52,139.52,0,0,1,32.5-89.92L101.18,64.84a187.52,187.52,0,0,0-14.7,227.38L14.4,353.12a40.62,40.62,0,0,0-2.5,59.75h0a40.62,40.62,0,0,0,59.75-2.5l59.95-71a187.44,187.44,0,0,0,234.32-9.83l-33.36-33.36A139.52,139.52,0,0,1,242.64,328.72Z"/><path class="cls-7" d="M133.17,57.28A170.62,170.62,0,0,1,241.84,17.53h.8A169.82,169.82,0,0,1,350.1,55.72L332.37,73.44a144.71,144.71,0,0,0-89.88-31,147.2,147.2,0,0,0-16.73.94l-.34,0A20.86,20.86,0,0,0,187.72,53l-.06,0A145.24,145.24,0,0,0,151.93,74a8.79,8.79,0,0,0,10.94,13.76A127.79,127.79,0,0,1,193.2,69.79a20.86,20.86,0,0,0,35.41-9,133.12,133.12,0,0,1,13.88-.73A127.27,127.27,0,0,1,319.83,86L301,104.77a101.67,101.67,0,0,0-117,.3,8.68,8.68,0,1,0,10,14.15,84.35,84.35,0,0,1,94.4-2l-21.29,21.29a56.38,56.38,0,1,0,24.95,24.95L269,186.7c.06.73.09,1.48.09,2.22a27.27,27.27,0,1,1-27.26-27.26c.74,0,1.49,0,2.22.09a27.08,27.08,0,0,1,17.05,7.9L281.72,149l20.6-20.6L333.16,97.6l12.43-12.43,17.62-17.62L375.66,55.1q-6.27-6.27-13.05-11.9A187.54,187.54,0,0,0,242.64,0h-.8A187.24,187.24,0,0,0,121.91,43.85a8.76,8.76,0,1,0,11.26,13.43Zm75.25,11.58A13.32,13.32,0,1,1,220.09,62,13.22,13.22,0,0,1,208.42,68.86Z"/><path class="cls-8" d="M344.42,280.23a8.81,8.81,0,0,0,12.36-1.4,145.9,145.9,0,0,0,.54-180.44l-12.54,12.53a128.29,128.29,0,0,1-1.77,157A8.8,8.8,0,0,0,344.42,280.23Z"/><path class="cls-9" d="M313.59,248.72a8.69,8.69,0,0,0,12.1-2.05,101.67,101.67,0,0,0,.3-116.95l-12.5,12.5a84.35,84.35,0,0,1-1.95,94.4A8.68,8.68,0,0,0,313.59,248.72Z"/><path class="cls-10" d="M427.56,222.86a188.17,188.17,0,0,0,3.19-33.94c0-.26,0-.53,0-.8a187.54,187.54,0,0,0-43.2-120L375,80.66a169.82,169.82,0,0,1,38.2,107.46c0,.27,0,.54,0,.8a170.47,170.47,0,0,1-2.71,29.47A20.85,20.85,0,0,0,400,254.09a170,170,0,0,1-26.48,43.5,8.76,8.76,0,0,0,13.43,11.26,187.25,187.25,0,0,0,29.78-49.24,20.85,20.85,0,0,0,10.87-36.75ZM420,250.92a13.34,13.34,0,0,1-17-4.78,13.18,13.18,0,0,1-2.14-7.23,13.31,13.31,0,0,1,7.87-12.15,13.11,13.11,0,0,1,5.46-1.17A13.32,13.32,0,0,1,420,250.92Z"/></svg>