<svg width="200" height="35" viewBox="0 0 200 35" fill="none" xmlns="http://www.w3.org/2000/svg">
<path d="M44.4711 28.5246H40.8608V7.23975H52.2514C53.236 7.23975 54.0661 7.39419 54.7515 7.70309C55.4368 8.01198 55.9871 8.42706 56.4021 8.95798C56.8172 9.48889 57.1261 10.1067 57.3192 10.8113C57.5122 11.516 57.6088 12.2689 57.6088 13.0605C57.6088 14.3057 57.3578 15.3289 56.8558 16.1205C56.3539 16.912 55.6202 17.5491 54.6356 18.0221C55.8036 18.1862 56.7014 18.7557 57.3481 19.721C57.9949 20.6863 58.3134 21.9123 58.3134 23.3795V28.5246H54.6743V23.7463C54.6743 22.5011 54.4233 21.5648 53.9213 20.947C53.4194 20.3292 52.734 20.0106 51.8556 20.0106C51.2861 20.0106 50.6297 20.1554 49.896 20.4354C49.1817 20.7056 48.4963 20.9759 47.8399 21.2462C47.1835 21.5262 46.614 21.835 46.1121 22.1826C45.6101 22.5301 45.2143 22.9258 44.9151 23.3795C44.6158 23.8332 44.4711 24.3641 44.4711 24.9723V28.5246ZM53.902 12.906C53.902 12.1338 53.7186 11.5257 53.3711 11.0816C53.0139 10.6472 52.3672 10.4252 51.4308 10.4252H44.4807V19.5859C44.8282 19.2191 45.2336 18.8909 45.6873 18.6013C46.1507 18.3117 46.6237 18.0511 47.1256 17.8194C47.6276 17.5877 48.1392 17.3754 48.6604 17.1727C49.1817 16.9796 49.6644 16.7865 50.118 16.6031C50.649 16.3811 51.1509 16.1591 51.6143 15.9467C52.0873 15.7344 52.483 15.4834 52.8209 15.2131C53.1587 14.9332 53.4194 14.6146 53.6124 14.2478C53.8055 13.8906 53.902 13.437 53.902 12.906Z" fill="white"/>
<path d="M76.7795 20.8699V28.8626H73.3238V26.2563C72.7735 27.2409 72.0206 27.9649 71.0553 28.4282C70.0997 28.9012 69.0668 29.1329 67.9664 29.1329C67.0493 29.1329 66.1323 28.9591 65.2056 28.6116C64.2886 28.2641 63.4584 27.7428 62.7248 27.0478C61.9912 26.3528 61.4023 25.4937 60.9487 24.4608C60.495 23.428 60.2729 22.231 60.2729 20.8603C60.2729 19.4702 60.5046 18.254 60.9776 17.2211C61.4506 16.1786 62.0684 15.3195 62.8503 14.6341C63.6225 13.9487 64.5106 13.4371 65.4952 13.0896C66.4895 12.7421 67.503 12.5684 68.5455 12.5684C69.5688 12.5684 70.5727 12.7421 71.5573 13.0896C72.5515 13.4371 73.43 13.9487 74.2022 14.6341C74.9744 15.3195 75.6019 16.1786 76.0749 17.2211C76.5382 18.2636 76.7795 19.4799 76.7795 20.8699ZM68.5745 25.8895C69.2695 25.8895 69.9066 25.7543 70.4858 25.4937C71.065 25.2331 71.5669 24.8759 71.982 24.4222C72.3971 23.9782 72.7253 23.4376 72.9666 22.8295C73.1983 22.2213 73.3141 21.5649 73.3141 20.8699C73.3141 20.1749 73.1983 19.5282 72.9666 18.9297C72.7349 18.3312 72.4067 17.8003 71.982 17.3369C71.5669 16.8736 71.065 16.5164 70.4858 16.2461C69.9066 15.9855 69.2695 15.8504 68.5745 15.8504C67.8795 15.8504 67.2424 15.9855 66.6632 16.2461C66.084 16.5164 65.5821 16.8736 65.167 17.3369C64.7519 17.8003 64.4237 18.3312 64.1824 18.9297C63.9507 19.5282 63.8349 20.1846 63.8349 20.8699C63.8349 21.5649 63.9507 22.2213 64.1824 22.8295C64.4141 23.4376 64.7423 23.9685 65.167 24.4222C65.5821 24.8759 66.084 25.2331 66.6632 25.4937C67.2424 25.7543 67.8795 25.8895 68.5745 25.8895Z" fill="white"/>
<path d="M86.9731 12.5684C88.0349 12.5684 89.0292 12.7325 89.9559 13.0607C90.8826 13.3889 91.7031 13.8812 92.4077 14.5279C93.1124 15.1843 93.6723 15.9952 94.0777 16.9798C94.4831 17.9644 94.6858 19.1131 94.6858 20.4355V28.8626H91.1914V20.1363C91.1914 19.4027 91.0853 18.7559 90.8729 18.196C90.6605 17.6362 90.3613 17.1728 89.9655 16.806C89.5794 16.4392 89.1257 16.1593 88.6141 15.9759C88.1025 15.7925 87.5523 15.6959 86.9634 15.6959C86.3939 15.6959 85.8437 15.7925 85.3224 15.9759C84.8012 16.1593 84.3571 16.4392 83.971 16.806C83.5946 17.1728 83.2953 17.6362 83.0636 18.196C82.8416 18.7559 82.7258 19.4027 82.7258 20.1363V28.8626H79.27V20.4452C79.27 19.1227 79.4727 17.9644 79.8782 16.9894C80.2836 16.0048 80.8338 15.194 81.5288 14.5376C82.2238 13.8812 83.0347 13.3985 83.9614 13.0703C84.917 12.7325 85.9113 12.5684 86.9731 12.5684Z" fill="white"/>
<path d="M108.895 19.9818C109.995 20.2713 110.874 20.8505 111.53 21.7289C112.187 22.6074 112.515 23.7464 112.515 25.1558V28.8625H109.021V25.4646C109.021 24.3642 108.731 23.4954 108.152 22.8776C107.573 22.2599 106.849 21.9413 105.989 21.9413C105.478 21.9413 104.928 22.0668 104.339 22.3081C103.789 22.5301 103.306 22.7715 102.881 23.0321C102.466 23.2831 102.109 23.5823 101.829 23.9202C101.539 24.258 101.327 24.6634 101.182 25.1268C101.037 25.5998 100.97 26.1693 100.97 26.845V28.8625H97.5142V5.28027H100.97V21.478C101.482 20.9471 102.128 20.4741 102.91 20.0686C103.692 19.6632 104.57 19.1999 105.526 18.6883C106.202 18.3214 106.723 17.9932 107.09 17.7037C107.457 17.4141 107.727 17.1052 107.901 16.7673C108.075 16.4295 108.171 16.0433 108.19 15.6186C108.21 15.1939 108.219 14.663 108.219 14.0259V12.8289H111.675V14.1417C111.675 14.8367 111.636 15.4642 111.55 16.0433C111.472 16.6129 111.328 17.1438 111.125 17.6168C110.922 18.0994 110.642 18.5338 110.285 18.9199C109.938 19.3254 109.474 19.6729 108.895 19.9818Z" fill="white"/>
<path d="M118.818 28.5246H115.208V7.23975H126.599C127.583 7.23975 128.413 7.39419 129.099 7.70309C129.784 8.01198 130.334 8.42706 130.749 8.95798C131.164 9.48889 131.473 10.1067 131.666 10.8113C131.859 11.516 131.956 12.2689 131.956 13.0605C131.956 14.3057 131.705 15.3289 131.203 16.1205C130.701 16.912 129.967 17.5491 128.983 18.0221C130.151 18.1862 131.049 18.7557 131.695 19.721C132.342 20.6863 132.661 21.9123 132.661 23.3795V28.5246H129.021V23.7463C129.021 22.5011 128.77 21.5648 128.268 20.947C127.767 20.3292 127.081 20.0106 126.203 20.0106C125.633 20.0106 124.977 20.1554 124.243 20.4354C123.529 20.7056 122.844 20.9759 122.187 21.2462C121.531 21.5262 120.961 21.835 120.459 22.1826C119.957 22.5301 119.562 22.9258 119.262 23.3795C118.963 23.8332 118.818 24.3641 118.818 24.9723V28.5246ZM128.249 12.906C128.249 12.1338 128.066 11.5257 127.718 11.0816C127.361 10.6472 126.714 10.4252 125.778 10.4252H118.828V19.5859C119.175 19.2191 119.581 18.8909 120.034 18.6013C120.498 18.3117 120.971 18.0511 121.473 17.8194C121.975 17.5877 122.486 17.3754 123.008 17.1727C123.529 16.9796 124.012 16.7865 124.465 16.6031C124.996 16.3811 125.498 16.1591 125.961 15.9467C126.434 15.7344 126.83 15.4834 127.168 15.2131C127.506 14.9332 127.767 14.6146 127.96 14.2478C128.153 13.8906 128.249 13.437 128.249 12.906Z" fill="white"/>
<path d="M151.127 20.8699V28.8626H147.671V26.2563C147.121 27.2409 146.368 27.9649 145.402 28.4282C144.447 28.9012 143.414 29.1329 142.314 29.1329C141.397 29.1329 140.479 28.9591 139.553 28.6116C138.636 28.2641 137.806 27.7428 137.072 27.0478C136.338 26.3528 135.75 25.4937 135.296 24.4608C134.842 23.428 134.62 22.231 134.62 20.8603C134.62 19.4702 134.852 18.254 135.325 17.2211C135.798 16.1786 136.416 15.3195 137.197 14.6341C137.97 13.9487 138.858 13.4371 139.842 13.0896C140.837 12.7421 141.85 12.5684 142.893 12.5684C143.916 12.5684 144.92 12.7421 145.904 13.0896C146.899 13.4371 147.777 13.9487 148.549 14.6341C149.322 15.3195 149.949 16.1786 150.422 17.2211C150.885 18.2636 151.127 19.4799 151.127 20.8699ZM142.922 25.8895C143.617 25.8895 144.254 25.7543 144.833 25.4937C145.412 25.2331 145.914 24.8759 146.329 24.4222C146.744 23.9782 147.072 23.4376 147.314 22.8295C147.545 22.2213 147.661 21.5649 147.661 20.8699C147.661 20.1749 147.545 19.5282 147.314 18.9297C147.082 18.3312 146.754 17.8003 146.329 17.3369C145.914 16.8736 145.412 16.5164 144.833 16.2461C144.254 15.9855 143.617 15.8504 142.922 15.8504C142.227 15.8504 141.59 15.9855 141.01 16.2461C140.431 16.5164 139.929 16.8736 139.514 17.3369C139.099 17.8003 138.771 18.3312 138.53 18.9297C138.298 19.5282 138.182 20.1846 138.182 20.8699C138.182 21.5649 138.298 22.2213 138.53 22.8295C138.761 23.4376 139.089 23.9685 139.514 24.4222C139.929 24.8759 140.431 25.2331 141.01 25.4937C141.59 25.7543 142.227 25.8895 142.922 25.8895Z" fill="white"/>
<path d="M169.738 5.28027V20.8312C169.738 22.2212 169.506 23.4375 169.033 24.4704C168.56 25.5129 167.942 26.372 167.16 27.0574C166.388 27.7427 165.5 28.2544 164.515 28.6019C163.521 28.9494 162.517 29.1231 161.504 29.1231C160.461 29.1231 159.447 28.9494 158.453 28.6019C157.459 28.2544 156.581 27.7427 155.808 27.0574C155.036 26.372 154.409 25.5129 153.936 24.4704C153.463 23.4279 153.231 22.2116 153.231 20.8312C153.231 19.4412 153.453 18.2346 153.907 17.221C154.36 16.1978 154.949 15.358 155.683 14.6823C156.416 14.0066 157.247 13.5046 158.183 13.1861C159.11 12.8579 160.046 12.6938 160.982 12.6938C161.986 12.6938 162.951 12.8675 163.878 13.215C164.805 13.5625 165.596 14.0838 166.253 14.7788V5.28027H169.738ZM161.533 25.8604C162.228 25.8604 162.855 25.7253 163.434 25.4646C164.004 25.204 164.496 24.8372 164.921 24.3739C165.336 23.9105 165.664 23.3796 165.905 22.7811C166.137 22.1826 166.253 21.5262 166.253 20.8409C166.253 20.1459 166.137 19.4895 165.905 18.8813C165.674 18.2732 165.345 17.7423 164.921 17.2886C164.506 16.8445 164.004 16.4777 163.434 16.2171C162.865 15.9565 162.228 15.8213 161.533 15.8213C160.838 15.8213 160.2 15.9565 159.621 16.2171C159.042 16.4874 158.54 16.8445 158.125 17.2886C157.71 17.7423 157.382 18.2732 157.14 18.8813C156.909 19.4895 156.793 20.1459 156.793 20.8409C156.793 21.5359 156.909 22.1826 157.14 22.7811C157.372 23.3796 157.7 23.9105 158.125 24.3739C158.54 24.8372 159.042 25.1944 159.621 25.4646C160.2 25.7253 160.838 25.8604 161.533 25.8604Z" fill="white"/>
<path d="M188.301 20.8699V28.8626H184.845V26.2563C184.295 27.2409 183.542 27.9649 182.576 28.4282C181.621 28.9012 180.588 29.1329 179.487 29.1329C178.57 29.1329 177.653 28.9591 176.727 28.6116C175.81 28.2641 174.979 27.7428 174.246 27.0478C173.512 26.3528 172.923 25.4937 172.47 24.4608C172.016 23.428 171.794 22.231 171.794 20.8603C171.794 19.4702 172.026 18.254 172.499 17.2211C172.972 16.1786 173.589 15.3195 174.371 14.6341C175.144 13.9487 176.032 13.4371 177.016 13.0896C178.01 12.7421 179.024 12.5684 180.067 12.5684C181.09 12.5684 182.094 12.7421 183.078 13.0896C184.073 13.4371 184.951 13.9487 185.723 14.6341C186.495 15.3195 187.123 16.1786 187.596 17.2211C188.059 18.2636 188.301 19.4799 188.301 20.8699ZM180.096 25.8895C180.791 25.8895 181.428 25.7543 182.007 25.4937C182.586 25.2331 183.088 24.8759 183.503 24.4222C183.918 23.9782 184.246 23.4376 184.488 22.8295C184.719 22.2213 184.835 21.5649 184.835 20.8699C184.835 20.1749 184.719 19.5282 184.488 18.9297C184.256 18.3312 183.928 17.8003 183.503 17.3369C183.088 16.8736 182.586 16.5164 182.007 16.2461C181.428 15.9855 180.791 15.8504 180.096 15.8504C179.4 15.8504 178.763 15.9855 178.184 16.2461C177.605 16.5164 177.103 16.8736 176.688 17.3369C176.273 17.8003 175.945 18.3312 175.703 18.9297C175.472 19.5282 175.356 20.1846 175.356 20.8699C175.356 21.5649 175.472 22.2213 175.703 22.8295C175.935 23.4376 176.263 23.9685 176.688 24.4222C177.103 24.8759 177.605 25.2331 178.184 25.4937C178.763 25.7543 179.4 25.8895 180.096 25.8895Z" fill="white"/>
<path d="M200 12.8481V15.9371H197.857C196.612 15.9371 195.714 16.2363 195.173 16.8445C194.633 17.443 194.363 18.4179 194.363 19.7693V28.8624H190.907V19.7693C190.907 17.5491 191.409 15.8309 192.422 14.6436C193.436 13.4466 195.009 12.8481 197.152 12.8481H200Z" fill="white"/>
<path d="M22.4818 33.6599C22.5397 33.3993 22.5687 33.129 22.5687 32.8587L22.6362 27.26C26.3333 25.2715 28.6211 21.4586 28.6211 17.2306C28.6211 10.9561 23.5147 5.84005 17.2306 5.84005C10.9465 5.84005 5.84005 10.9465 5.84005 17.2306C5.84005 17.3367 5.84005 17.4526 5.8497 17.5588L1.08113 20.223C0.820503 20.3678 0.569526 20.5415 0.35716 20.7442C0.125489 19.6052 0 18.4275 0 17.2402C0 7.73203 7.73203 0 17.2402 0C26.7484 0 34.4804 7.73203 34.4804 17.2402C34.4804 21.169 33.1869 24.8661 30.7447 27.9454C28.6114 30.6192 25.7155 32.6271 22.4818 33.6599Z" fill="url(#paint0_linear_36_3845)"/>
<path d="M18.8525 12.5103C18.4857 12.5103 18.0995 12.6068 17.7327 12.8095C17.7327 12.8095 12.7807 15.5702 7.65502 18.4372C7.29786 18.6399 6.94069 18.833 6.58353 19.0357C4.95218 19.943 3.33048 20.8504 1.88254 21.6613C0.849668 22.2405 0.560079 23.3892 0.897933 24.3158C1.13926 25.0012 1.70878 25.5611 2.55824 25.7155L6.01401 26.3237L10.3868 20.0975C10.5799 19.8272 10.8791 19.6824 11.188 19.6824C11.3811 19.6824 11.5741 19.7403 11.7479 19.8562C12.1919 20.1651 12.2981 20.7732 11.9892 21.2172L5.53136 30.4069C5.22247 30.8509 5.32865 31.459 5.77269 31.7679C5.94644 31.8838 6.1395 31.9417 6.33256 31.9417C6.64145 31.9417 6.9407 31.7969 7.13375 31.5266L15.4064 19.8176C15.5994 19.5473 15.8987 19.4025 16.2076 19.4025C16.4006 19.4025 16.5937 19.4604 16.7674 19.5762C17.2115 19.8851 17.3176 20.4933 17.0087 20.9373L15.7635 22.7134C15.7056 22.7617 15.6573 22.8196 15.6187 22.8775L10.1648 30.6482C9.85589 31.0922 9.96208 31.7004 10.4061 32.0093C10.5799 32.1251 10.7729 32.183 10.966 32.183C11.2749 32.183 11.5741 32.0382 11.7672 31.7679L16.0917 25.6673C16.2848 25.397 16.584 25.2522 16.8929 25.2522C17.086 25.2522 17.279 25.3101 17.4528 25.4259C17.8968 25.7348 18.003 26.343 17.6941 26.787L14.6052 31.1888C15.4064 32.1444 16.2848 33.1869 17.1342 34.2101C17.5879 34.7507 18.1864 34.992 18.7752 34.992C18.9393 34.992 19.1034 34.9727 19.2579 34.9341C20.1653 34.7314 20.9472 33.9495 20.9568 32.8298C20.9761 31.1502 20.9954 29.2678 21.0244 27.3565C21.092 21.1979 21.1692 14.8463 21.1692 14.8463C21.1692 13.4949 20.0591 12.5103 18.8525 12.5103Z" fill="url(#paint1_linear_36_3845)"/>
<defs>
<linearGradient id="paint0_linear_36_3845" x1="6.72591" y1="32.2798" x2="26.6565" y2="3.76377" gradientUnits="userSpaceOnUse">
<stop stop-color="#FF7952"/>
<stop offset="1" stop-color="#8204FF"/>
</linearGradient>
<linearGradient id="paint1_linear_36_3845" x1="7.57847" y1="32.8755" x2="27.509" y2="4.3595" gradientUnits="userSpaceOnUse">
<stop stop-color="#FF7952"/>
<stop offset="1" stop-color="#8204FF"/>
</linearGradient>
</defs>
</svg>
